M48
;DRILL file {KiCad 5.0.2-bee76a0~70~ubuntu16.04.1} date fre  4 dec 2020 16:37:02
;FORMAT={-:-/ absolute / inch / decimal}
FMAT,2
INCH,TZ
T1C0.0157
T2C0.0315
T3C0.0394
T4C0.0400
T5C0.0701
%
G90
G05
T1
X3.0925Y-2.9675
X3.154Y-4.0515
X3.1835Y-2.85
X3.2Y-4.09
X3.2Y-4.2204
X3.3255Y-2.311
X3.3695Y-2.382
X3.3766Y-3.5045
X3.3813Y-2.3077
X3.493Y-2.3395
X3.5004Y-3.1933
X3.5015Y-3.3335
X3.573Y-2.5451
X3.5817Y-2.991
X3.5905Y-2.433
X3.5975Y-3.2505
X3.6014Y-3.0279
X3.6055Y-2.59
X3.6145Y-3.4155
X3.6407Y-3.5715
X3.664Y-3.5385
X3.686Y-3.422
X3.687Y-3.255
X3.7035Y-3.8425
X3.7495Y-3.097
X3.7505Y-3.176
X3.7944Y-3.1795
X3.8595Y-3.1983
X3.8738Y-3.7695
X3.9505Y-3.1315
X4.0525Y-3.6415
X4.0835Y-3.0825
T2
X3.5275Y-4.1281
X3.5275Y-4.2265
X3.9325Y-3.2229
X3.9325Y-3.415
T3
X3.8235Y-4.1795
X3.9235Y-4.1795
X3.8216Y-3.8914
X3.9216Y-3.8914
X3.Y-3.32
X3.Y-3.42
X3.802Y-2.998
X3.902Y-2.998
X3.86Y-3.64
X3.96Y-3.64
X3.515Y-3.7895
X3.515Y-3.8895
X3.Y-3.62
X3.Y-3.72
X3.Y-3.82
X3.Y-3.92
X3.9279Y-2.8021
X4.0279Y-2.8021
X3.Y-2.965
X3.Y-3.065
X3.Y-3.165
X3.9279Y-2.6621
X4.0279Y-2.6621
X3.8216Y-4.0351
X3.9216Y-4.0351
X3.17Y-3.39
X3.17Y-3.49
X3.17Y-3.59
X3.17Y-3.69
T4
X2.6713Y-2.12
X2.6713Y-2.22
X2.6713Y-2.32
X2.6713Y-2.42
X2.6713Y-2.52
X2.6713Y-2.62
X2.6713Y-2.72
X2.6713Y-2.82
X2.6713Y-2.92
X2.6713Y-3.02
X2.6713Y-3.12
X2.6713Y-3.22
X2.6713Y-3.32
X2.6713Y-3.42
X2.6713Y-3.52
X2.6713Y-3.62
X2.6713Y-3.72
X2.6713Y-3.82
X2.6713Y-3.92
X2.6713Y-4.02
X2.6713Y-4.12
X2.6713Y-4.22
X2.6713Y-4.32
X2.6713Y-4.42
X2.6713Y-4.52
X2.7713Y-2.12
X2.7713Y-2.22
X2.7713Y-2.32
X2.7713Y-2.42
X2.7713Y-2.52
X2.7713Y-2.62
X2.7713Y-2.72
X2.7713Y-2.82
X2.7713Y-2.92
X2.7713Y-3.02
X2.7713Y-3.12
X2.7713Y-3.22
X2.7713Y-3.32
X2.7713Y-3.42
X2.7713Y-3.52
X2.7713Y-3.62
X2.7713Y-3.72
X2.7713Y-3.82
X2.7713Y-3.92
X2.7713Y-4.02
X2.7713Y-4.12
X2.7713Y-4.22
X2.7713Y-4.32
X2.7713Y-4.42
X2.7713Y-4.52
T5
X3.18Y-4.5
X3.38Y-4.5
X3.58Y-4.5
X3.78Y-4.5
T0
M30
